<svg xmlns="http://www.w3.org/2000/svg" viewBox="0 0 45 45"><defs><linearGradient id="gW" gradientUnits="userSpaceOnUse" x1="6" y1="15" x2="39" y2="25"><stop offset="0" stop-color="#ffffff"/><stop offset="0.62" stop-color="#ffffff"/><stop offset="0.72" stop-color="#aeaeb8"/><stop offset="1" stop-color="#aeaeb8"/></linearGradient><linearGradient id="gB" gradientUnits="userSpaceOnUse" x1="6" y1="15" x2="39" y2="25"><stop offset="0" stop-color="#aeaeb8"/><stop offset="0.1" stop-color="#aeaeb8"/><stop offset="0.18" stop-color="#3a3a42"/><stop offset="0.8" stop-color="#3a3a42"/><stop offset="0.88" stop-color="#121214"/><stop offset="1" stop-color="#121214"/></linearGradient><linearGradient id="gW-B" gradientUnits="userSpaceOnUse" x1="14" y1="17.5" x2="39" y2="25"><stop offset="0" stop-color="#ffffff"/><stop offset="0.62" stop-color="#ffffff"/><stop offset="0.72" stop-color="#aeaeb8"/><stop offset="1" stop-color="#aeaeb8"/></linearGradient><linearGradient id="gB-B" gradientUnits="userSpaceOnUse" x1="14" y1="17.5" x2="39" y2="25"><stop offset="0" stop-color="#aeaeb8"/><stop offset="0.1" stop-color="#aeaeb8"/><stop offset="0.18" stop-color="#3a3a42"/><stop offset="0.8" stop-color="#3a3a42"/><stop offset="0.88" stop-color="#121214"/><stop offset="1" stop-color="#121214"/></linearGradient><radialGradient id="gW-dot" cx="0.32" cy="0.3" r="0.85"><stop offset="0" stop-color="#ffffff"/><stop offset="0.3" stop-color="#ffffff"/><stop offset="0.55" stop-color="#3a3a42"/><stop offset="1" stop-color="#121214"/></radialGradient><radialGradient id="gB-dot" cx="0.32" cy="0.3" r="0.9"><stop offset="0" stop-color="#aeaeb8"/><stop offset="0.3" stop-color="#aeaeb8"/><stop offset="0.55" stop-color="#3a3a42"/><stop offset="1" stop-color="#121214"/></radialGradient></defs><g fill="none" fill-rule="evenodd" stroke="#000" stroke-linecap="round" stroke-linejoin="round" stroke-width="1.5"><path fill="url(#gB)" stroke-linecap="butt" d="M22 10c9.52 0.91 15.35 6.75 15.97 23.5L16.88 33.5c2.79-3.44 7.55-5.08 6.12-15.5"/><path fill="url(#gB)" d="M24 18c.38 2.91-5.55 7.37-8 9-3 2-2.82 4.34-5 4-1.042-.94 1.41-3.04 0-3-1 0 .19 1.23-1 2-1 0-4.003 1-4-4 0-2 6-12 6-12s1.89-1.9 2-3.5c-.73-.994-.5-2-.5-3 1-1 3 2.5 3 2.5h2s.78-1.992 2.5-3c1 0 1 3 1 3"/><path fill="#aeaeb8" d="M9.5 25.5a.5.5 0 1 1-1 0 .5.5 0 1 1 1 0m5.433-9.75a.5 1.5 30 1 1-.866-.5.5 1.5 30 1 1 .866.5"/><g transform="translate(4.879999999999999,0.0)"><path fill="url(#gB)" stroke-linecap="butt" d="M12 33.5C10.5 34.5 10.5 36 10.5 36C9 37.5 11 38.5 11 38.5C17.5 39.5 27.5 39.5 34 38.5C34 38.5 35.5 37.5 34 36C34 36 34.5 34.5 33 33.5C27 32.5 18 32.5 12 33.5Z"/></g></g></svg>