<svg xmlns="http://www.w3.org/2000/svg" viewBox="0 0 45 45"><defs><linearGradient id="gW" gradientUnits="userSpaceOnUse" x1="6" y1="15" x2="39" y2="25"><stop offset="0" stop-color="#ffffff"/><stop offset="0.62" stop-color="#ffffff"/><stop offset="0.72" stop-color="#aeaeb8"/><stop offset="1" stop-color="#aeaeb8"/></linearGradient><linearGradient id="gB" gradientUnits="userSpaceOnUse" x1="6" y1="15" x2="39" y2="25"><stop offset="0" stop-color="#aeaeb8"/><stop offset="0.1" stop-color="#aeaeb8"/><stop offset="0.18" stop-color="#3a3a42"/><stop offset="0.8" stop-color="#3a3a42"/><stop offset="0.88" stop-color="#121214"/><stop offset="1" stop-color="#121214"/></linearGradient><radialGradient id="gW-dot" cx="0.32" cy="0.3" r="0.85"><stop offset="0" stop-color="#ffffff"/><stop offset="0.55" stop-color="#ffffff"/><stop offset="1" stop-color="#aeaeb8"/></radialGradient><radialGradient id="gB-dot" cx="0.32" cy="0.3" r="0.9"><stop offset="0" stop-color="#aeaeb8"/><stop offset="0.3" stop-color="#aeaeb8"/><stop offset="0.55" stop-color="#3a3a42"/><stop offset="1" stop-color="#121214"/></radialGradient></defs><g fill="none" fill-rule="evenodd" stroke="#000" stroke-linecap="round" stroke-linejoin="round" stroke-width="1.5"><g fill="url(#gW)" stroke-linecap="butt"><path d="M9 36c3.39-.97 10.11.43 13.5-2 3.39 2.43 10.11 1.03 13.5 2 0 0 1.65.54 3 2-.68.97-1.65.99-3 .5-3.39-.97-10.11.46-13.5-1-3.39 1.46-10.11.03-13.5 1-1.35.49-2.32.47-3-.5 1.35-1.94 3-2 3-2z"/><path d="M15 32c2.5 2.5 12.5 2.5 15 0 .5-1.5 0-2 0-2 0-2.5-2.5-4-2.5-4 5.5-1.5 6-11.5-5-15.5-11 4-10.5 14-5 15.5 0 0-2.5 1.5-2.5 4 0 0-.5.5 0 2z"/><path d="M25 8a2.5 2.5 0 1 1-5 0 2.5 2.5 0 1 1 5 0z"/></g><path stroke-linejoin="miter" d="M17.5 26h10M15 30h15m-7.5-14.5v5M20 18h5"/></g></svg>